<?xml version="1.0" encoding="utf-8"?>
<!-- Generator: Adobe Illustrator 16.0.0, SVG Export Plug-In . SVG Version: 6.00 Build 0)  -->
<!DOCTYPE svg PUBLIC "-//W3C//DTD SVG 1.1//EN" "http://www.w3.org/Graphics/SVG/1.1/DTD/svg11.dtd">
<svg version="1.1" id="Layer_1" xmlns="http://www.w3.org/2000/svg" xmlns:xlink="http://www.w3.org/1999/xlink" x="0px" y="0px"
	 width="48px" height="48px" viewBox="0 0 48 48" enable-background="new 0 0 48 48" xml:space="preserve">
<g id="Layer_1_1_">
	<path fill="#FFFFFF" d="M23,28c8.279,0,15,3.141,15,7v5H8v-5C8,31.141,14.72,28,23,28 M36,35c0-2.76-5.82-5-13-5
		c-7.18,0-13,2.24-13,5v3h26V35z M23,10c3.866,0,7,3.134,7,7s-3.134,7-7,7s-7-3.134-7-7S19.134,10,23,10 M23,12
		c-2.761,0-5,2.239-5,5s2.239,5,5,5c2.762,0,5-2.239,5-5S25.762,12,23,12"/>
</g>
</svg>
