<?xml version="1.0" encoding="utf-8"?>
<!-- Generator: Adobe Illustrator 16.0.0, SVG Export Plug-In . SVG Version: 6.00 Build 0)  -->
<!DOCTYPE svg PUBLIC "-//W3C//DTD SVG 1.1//EN" "http://www.w3.org/Graphics/SVG/1.1/DTD/svg11.dtd">
<svg version="1.1" id="Layer_1" xmlns="http://www.w3.org/2000/svg" xmlns:xlink="http://www.w3.org/1999/xlink" x="0px" y="0px"
	 width="48px" height="48px" viewBox="0 0 48 48" enable-background="new 0 0 48 48" xml:space="preserve">
<g id="Layer_1_1_">
	<path fill="#737373" d="M14.616,42.232c-0.844,0-1.556-0.289-2.134-0.869c-0.579-0.578-0.867-1.289-0.866-2.131
		c0.001-0.844,0.29-1.558,0.866-2.135c0.579-0.578,1.29-0.865,2.134-0.865c0.844,0,1.555,0.287,2.132,0.865
		c0.577,0.575,0.867,1.286,0.868,2.135c0.001,0.845-0.288,1.556-0.868,2.131C16.168,41.939,15.458,42.229,14.616,42.232
		 M33.384,42.232c-0.843,0-1.554-0.289-2.132-0.869c-0.578-0.578-0.868-1.289-0.868-2.131c0-0.844,0.29-1.558,0.868-2.135
		c0.578-0.578,1.289-0.865,2.132-0.865s1.554,0.287,2.134,0.865c0.578,0.576,0.866,1.291,0.866,2.135
		c0,0.842-0.288,1.553-0.866,2.131C34.939,41.943,34.229,42.232,33.384,42.232 M11.762,11L17.1,22.232h14L37.254,11H11.762z
		 M10.784,9H40.63l-8.334,15.232H16.2l-3.278,6h23.462v2H9.482l5.488-9.8L7.616,7H4V5h4.884L10.784,9z M17.1,22.232h14H17.1z"/>
</g>
</svg>
